<?xml version="1.0" standalone="no"?>
<!DOCTYPE svg PUBLIC "-//W3C//DTD SVG 20010904//EN"
 "http://www.w3.org/TR/2001/REC-SVG-20010904/DTD/svg10.dtd">
<svg version="1.0" xmlns="http://www.w3.org/2000/svg"
 width="340.000000pt" height="340.000000pt" viewBox="0 0 340.000000 340.000000"
 preserveAspectRatio="xMidYMid meet">

<g transform="translate(0.000000,340.000000) scale(0.100000,-0.100000)"
fill="#000000" stroke="none">
<path d="M1655 2680 c-89 -23 -135 -43 -204 -87 -129 -81 -243 -225 -295 -371
-29 -82 -47 -217 -37 -277 l6 -40 58 74 c31 40 60 85 62 100 27 134 78 233
165 321 274 278 732 225 933 -107 197 -325 40 -747 -323 -874 -52 -18 -88 -23
-180 -23 -142 -1 -228 24 -337 97 -80 53 -128 105 -185 198 l-37 60 -40 -51
-41 -52 22 -41 c13 -23 61 -80 108 -127 91 -92 190 -152 302 -185 l58 -16 2
-331 3 -330 122 -5 123 -4 2 332 3 331 70 19 c197 51 370 190 458 369 56 112
77 202 77 325 0 124 -21 213 -76 325 -89 179 -264 320 -460 370 -102 26 -261
26 -359 0z"/>
<path d="M1409 2235 c-42 -23 -57 -76 -38 -131 2 -6 -88 -129 -200 -272 -183
-234 -208 -262 -233 -262 -95 0 -139 -100 -73 -166 36 -35 88 -33 127 7 28 28
30 34 25 78 l-6 49 202 258 c199 255 203 259 244 265 l42 5 185 -185 185 -186
-1 -44 c0 -38 4 -49 31 -73 39 -35 80 -36 119 -3 34 29 46 63 33 98 -8 22 0
36 71 121 75 91 82 96 118 96 57 0 95 35 95 88 0 73 -63 116 -129 88 -44 -18
-60 -48 -54 -101 5 -41 2 -46 -73 -135 -75 -89 -79 -93 -121 -94 l-43 -2 -187
185 c-170 168 -186 187 -181 212 9 44 -5 78 -40 99 -38 23 -62 25 -98 5z"/>
</g>
</svg>
